<?xml version="1.0" standalone="no"?><!-- Generator: Gravit.io --><svg xmlns="http://www.w3.org/2000/svg" xmlns:xlink="http://www.w3.org/1999/xlink" style="isolation:isolate" viewBox="0 0 2000 2000" width="2000" height="2000"><defs><clipPath id="_clipPath_covpSwo9Cn7oGUKnjAPQmQIizZgyBnbc"><rect width="2000" height="2000"/></clipPath></defs><g clip-path="url(#_clipPath_covpSwo9Cn7oGUKnjAPQmQIizZgyBnbc)"><rect x="416" y="548" width="278" height="278" transform="matrix(1,0,0,1,0,0)" fill="rgb(218,106,29)"/><rect x="1072" y="826" width="278" height="278" transform="matrix(1,0,0,1,0,0)" fill="rgb(231,44,19)"/><rect x="744" y="687" width="278" height="278" transform="matrix(1,0,0,1,0,0)" fill="rgb(231,160,19)"/><polygon points="883,396.245,1022,637,744,637" fill="rgb(28,12,141)"/><polygon points="555,1111.378,416,870.622,694,870.622" fill="rgb(6,167,87)"/><polygon points="1640.755,965,1400,1104,1400,826" fill="rgb(229,151,97)"/><circle vector-effect="non-scaling-stroke" cx="555" cy="344.62246887396304" r="172" fill="rgb(241,78,20)"/><circle vector-effect="non-scaling-stroke" cx="228.31123443698152" cy="671.3112344369814" r="154.68876556301848" fill="rgb(0,132,141)"/><polygon points="925.643,1427.982,678.548,1427.982,555,1213.991,678.548,1000,925.643,1000,1049.191,1213.991" fill="rgb(241,142,20)"/><polygon points="507.143,1149.111,142,1149.111,324.571,832.889" fill="rgb(29,205,218)"/></g></svg>