<?xml version="1.0" standalone="no"?><!-- Generator: Gravit.io -->
<svg xmlns="http://www.w3.org/2000/svg" 
    xmlns:xlink="http://www.w3.org/1999/xlink" style="isolation:isolate" viewBox="0 0 2000 2000" width="2000" height="2000">
    <defs>
        <clipPath id="_clipPath_nkqwlvGJ9rAuXg1zsdNrRcyijZG5c31f">
            <rect width="2000" height="2000"/>
        </clipPath>
    </defs>
    <g clip-path="url(#_clipPath_nkqwlvGJ9rAuXg1zsdNrRcyijZG5c31f)">
        <g style="isolation:isolate">
            <g>
                <rect x="805" y="630" width="300" height="300" transform="matrix(1,0,0,1,0,0)" fill="rgb(218,106,29)"/>
                <rect x="773" y="1305" width="183" height="250" transform="matrix(1,0,0,1,0,0)" fill="rgb(0,132,141)"/>
                <rect x="1135" y="680" width="250" height="250" transform="matrix(1,0,0,1,0,0)" fill="rgb(29,205,218)"/>
                <path d=" M 1260 450 L 1385 650 L 1135 650 L 1260 450 Z " fill="rgb(0,132,141)"/>
                <path d=" M 955 1210 L 805 960 L 1105 960 L 955 1210 Z " fill="rgb(241,78,20)"/>
                <line x1="1105" y1="960" x2="1135" y2="960"/>
                <path d=" M 1276 1470 L 986 1635 L 986 1305 L 1276 1470 Z " fill="rgb(29,205,218)"/>
                <circle vector-effect="non-scaling-stroke" cx="955" cy="425" r="175" fill="rgb(241,78,20)"/>
                <circle vector-effect="non-scaling-stroke" cx="625" cy="855" r="150" fill="rgb(0,132,141)"/>
                <path d=" M 1301.666 1248 L 1135.222 1248 L 1052 1103.855 L 1135.222 959.71 L 1301.666 959.71 L 1384.889 1103.855 L 1301.666 1248 Z " fill="rgb(218,106,29)"/>
                <path d=" M 956 1275 L 590 1275 L 772.999 960 L 956 1275 Z " fill="rgb(29,205,218)"/>
            </g>
        </g>
    </g>
</svg>